<mxfile host="app.diagrams.net" agent="Mozilla/5.0 (Windows NT 10.0; Win64; x64) AppleWebKit/537.36 (KHTML, like Gecko) Chrome/138.0.0.0 Safari/537.36" version="28.0.6">
  <diagram name="Page-1" id="itg5hwSYj-D-f6FrV9CS">
    <mxGraphModel dx="1158" dy="794" grid="1" gridSize="10" guides="1" tooltips="1" connect="1" arrows="1" fold="1" page="1" pageScale="1" pageWidth="1200" pageHeight="1000" math="0" shadow="0">
      <root>
        <mxCell id="0" />
        <mxCell id="1" parent="0" />
        <mxCell id="_nW9wtje4dOlIlS4VaRj-1" value="" style="shape=umlLifeline;perimeter=lifelinePerimeter;whiteSpace=wrap;html=1;container=1;dropTarget=0;collapsible=0;recursiveResize=0;outlineConnect=0;portConstraint=eastwest;newEdgeStyle={&quot;curved&quot;:0,&quot;rounded&quot;:0};participant=umlActor;" vertex="1" parent="1">
          <mxGeometry x="70" y="130" width="20" height="640" as="geometry" />
        </mxCell>
        <mxCell id="_nW9wtje4dOlIlS4VaRj-46" value="" style="html=1;points=[[0,0,0,0,5],[0,1,0,0,-5],[1,0,0,0,5],[1,1,0,0,-5]];perimeter=orthogonalPerimeter;outlineConnect=0;targetShapes=umlLifeline;portConstraint=eastwest;newEdgeStyle={&quot;curved&quot;:0,&quot;rounded&quot;:0};" vertex="1" parent="_nW9wtje4dOlIlS4VaRj-1">
          <mxGeometry x="5" y="80" width="10" height="550" as="geometry" />
        </mxCell>
        <mxCell id="_nW9wtje4dOlIlS4VaRj-2" value=":InteractiveInput" style="shape=umlLifeline;perimeter=lifelinePerimeter;whiteSpace=wrap;html=1;container=1;dropTarget=0;collapsible=0;recursiveResize=0;outlineConnect=0;portConstraint=eastwest;newEdgeStyle={&quot;curved&quot;:0,&quot;rounded&quot;:0};" vertex="1" parent="1">
          <mxGeometry x="280" y="130" width="100" height="640" as="geometry" />
        </mxCell>
        <mxCell id="_nW9wtje4dOlIlS4VaRj-53" value="" style="html=1;points=[[0,0,0,0,5],[0,1,0,0,-5],[1,0,0,0,5],[1,1,0,0,-5]];perimeter=orthogonalPerimeter;outlineConnect=0;targetShapes=umlLifeline;portConstraint=eastwest;newEdgeStyle={&quot;curved&quot;:0,&quot;rounded&quot;:0};" vertex="1" parent="_nW9wtje4dOlIlS4VaRj-2">
          <mxGeometry x="45" y="110" width="10" height="40" as="geometry" />
        </mxCell>
        <mxCell id="_nW9wtje4dOlIlS4VaRj-4" value=":KWICController" style="shape=umlLifeline;perimeter=lifelinePerimeter;whiteSpace=wrap;html=1;container=1;dropTarget=0;collapsible=0;recursiveResize=0;outlineConnect=0;portConstraint=eastwest;newEdgeStyle={&quot;curved&quot;:0,&quot;rounded&quot;:0};" vertex="1" parent="1">
          <mxGeometry x="140" y="130" width="100" height="640" as="geometry" />
        </mxCell>
        <mxCell id="_nW9wtje4dOlIlS4VaRj-52" value="" style="html=1;points=[[0,0,0,0,5],[0,1,0,0,-5],[1,0,0,0,5],[1,1,0,0,-5]];perimeter=orthogonalPerimeter;outlineConnect=0;targetShapes=umlLifeline;portConstraint=eastwest;newEdgeStyle={&quot;curved&quot;:0,&quot;rounded&quot;:0};" vertex="1" parent="_nW9wtje4dOlIlS4VaRj-4">
          <mxGeometry x="45" y="80" width="10" height="510" as="geometry" />
        </mxCell>
        <mxCell id="_nW9wtje4dOlIlS4VaRj-15" value="Ask to Enter Lines" style="html=1;verticalAlign=bottom;startArrow=oval;startFill=1;endArrow=block;startSize=8;curved=0;rounded=0;fontSize=10;" edge="1" parent="1">
          <mxGeometry width="60" relative="1" as="geometry">
            <mxPoint x="90" y="220" as="sourcePoint" />
            <mxPoint x="180" y="220" as="targetPoint" />
          </mxGeometry>
        </mxCell>
        <mxCell id="_nW9wtje4dOlIlS4VaRj-20" value="acceptInput()" style="html=1;verticalAlign=bottom;endArrow=block;curved=0;rounded=0;fontSize=12;startSize=8;endSize=8;" edge="1" parent="1">
          <mxGeometry width="80" relative="1" as="geometry">
            <mxPoint x="200" y="250" as="sourcePoint" />
            <mxPoint x="320" y="250" as="targetPoint" />
          </mxGeometry>
        </mxCell>
        <mxCell id="_nW9wtje4dOlIlS4VaRj-21" value=":Shifter" style="shape=umlLifeline;perimeter=lifelinePerimeter;whiteSpace=wrap;html=1;container=1;dropTarget=0;collapsible=0;recursiveResize=0;outlineConnect=0;portConstraint=eastwest;newEdgeStyle={&quot;curved&quot;:0,&quot;rounded&quot;:0};" vertex="1" parent="1">
          <mxGeometry x="540" y="130" width="100" height="640" as="geometry" />
        </mxCell>
        <mxCell id="_nW9wtje4dOlIlS4VaRj-36" value="shiftAllLines()" style="html=1;align=left;spacingLeft=2;endArrow=block;rounded=0;edgeStyle=orthogonalEdgeStyle;curved=0;rounded=0;fontSize=12;startSize=8;endSize=8;" edge="1" parent="_nW9wtje4dOlIlS4VaRj-21">
          <mxGeometry relative="1" as="geometry">
            <mxPoint x="60" y="250" as="sourcePoint" />
            <Array as="points">
              <mxPoint x="90" y="280" />
            </Array>
            <mxPoint x="65" y="280.0000000000002" as="targetPoint" />
          </mxGeometry>
        </mxCell>
        <mxCell id="_nW9wtje4dOlIlS4VaRj-56" value="" style="html=1;points=[[0,0,0,0,5],[0,1,0,0,-5],[1,0,0,0,5],[1,1,0,0,-5]];perimeter=orthogonalPerimeter;outlineConnect=0;targetShapes=umlLifeline;portConstraint=eastwest;newEdgeStyle={&quot;curved&quot;:0,&quot;rounded&quot;:0};" vertex="1" parent="_nW9wtje4dOlIlS4VaRj-21">
          <mxGeometry x="45" y="160" width="10" height="50" as="geometry" />
        </mxCell>
        <mxCell id="_nW9wtje4dOlIlS4VaRj-58" value="" style="html=1;points=[[0,0,0,0,5],[0,1,0,0,-5],[1,0,0,0,5],[1,1,0,0,-5]];perimeter=orthogonalPerimeter;outlineConnect=0;targetShapes=umlLifeline;portConstraint=eastwest;newEdgeStyle={&quot;curved&quot;:0,&quot;rounded&quot;:0};" vertex="1" parent="_nW9wtje4dOlIlS4VaRj-21">
          <mxGeometry x="45" y="220" width="10" height="70" as="geometry" />
        </mxCell>
        <mxCell id="_nW9wtje4dOlIlS4VaRj-61" value="" style="html=1;points=[[0,0,0,0,5],[0,1,0,0,-5],[1,0,0,0,5],[1,1,0,0,-5]];perimeter=orthogonalPerimeter;outlineConnect=0;targetShapes=umlLifeline;portConstraint=eastwest;newEdgeStyle={&quot;curved&quot;:0,&quot;rounded&quot;:0};" vertex="1" parent="_nW9wtje4dOlIlS4VaRj-21">
          <mxGeometry x="45" y="340" width="10" height="60" as="geometry" />
        </mxCell>
        <mxCell id="_nW9wtje4dOlIlS4VaRj-22" value="Start Shifting" style="html=1;verticalAlign=bottom;endArrow=block;curved=0;rounded=0;fontSize=12;startSize=8;endSize=8;" edge="1" parent="1">
          <mxGeometry width="80" relative="1" as="geometry">
            <mxPoint x="200" y="300" as="sourcePoint" />
            <mxPoint x="580" y="300" as="targetPoint" />
          </mxGeometry>
        </mxCell>
        <mxCell id="_nW9wtje4dOlIlS4VaRj-25" value=":Sorter" style="shape=umlLifeline;perimeter=lifelinePerimeter;whiteSpace=wrap;html=1;container=1;dropTarget=0;collapsible=0;recursiveResize=0;outlineConnect=0;portConstraint=eastwest;newEdgeStyle={&quot;curved&quot;:0,&quot;rounded&quot;:0};" vertex="1" parent="1">
          <mxGeometry x="400" y="130" width="100" height="640" as="geometry" />
        </mxCell>
        <mxCell id="_nW9wtje4dOlIlS4VaRj-60" value="" style="html=1;points=[[0,0,0,0,5],[0,1,0,0,-5],[1,0,0,0,5],[1,1,0,0,-5]];perimeter=orthogonalPerimeter;outlineConnect=0;targetShapes=umlLifeline;portConstraint=eastwest;newEdgeStyle={&quot;curved&quot;:0,&quot;rounded&quot;:0};" vertex="1" parent="_nW9wtje4dOlIlS4VaRj-25">
          <mxGeometry x="45" y="300" width="10" height="60" as="geometry" />
        </mxCell>
        <mxCell id="_nW9wtje4dOlIlS4VaRj-62" value="" style="html=1;points=[[0,0,0,0,5],[0,1,0,0,-5],[1,0,0,0,5],[1,1,0,0,-5]];perimeter=orthogonalPerimeter;outlineConnect=0;targetShapes=umlLifeline;portConstraint=eastwest;newEdgeStyle={&quot;curved&quot;:0,&quot;rounded&quot;:0};" vertex="1" parent="_nW9wtje4dOlIlS4VaRj-25">
          <mxGeometry x="45" y="380" width="10" height="80" as="geometry" />
        </mxCell>
        <mxCell id="_nW9wtje4dOlIlS4VaRj-63" value="" style="html=1;points=[[0,0,0,0,5],[0,1,0,0,-5],[1,0,0,0,5],[1,1,0,0,-5]];perimeter=orthogonalPerimeter;outlineConnect=0;targetShapes=umlLifeline;portConstraint=eastwest;newEdgeStyle={&quot;curved&quot;:0,&quot;rounded&quot;:0};" vertex="1" parent="_nW9wtje4dOlIlS4VaRj-25">
          <mxGeometry x="45" y="470" width="10" height="60" as="geometry" />
        </mxCell>
        <mxCell id="_nW9wtje4dOlIlS4VaRj-28" value=":LineStorage" style="shape=umlLifeline;perimeter=lifelinePerimeter;whiteSpace=wrap;html=1;container=1;dropTarget=0;collapsible=0;recursiveResize=0;outlineConnect=0;portConstraint=eastwest;newEdgeStyle={&quot;curved&quot;:0,&quot;rounded&quot;:0};" vertex="1" parent="1">
          <mxGeometry x="660" y="130" width="100" height="640" as="geometry" />
        </mxCell>
        <mxCell id="_nW9wtje4dOlIlS4VaRj-54" value="" style="html=1;points=[[0,0,0,0,5],[0,1,0,0,-5],[1,0,0,0,5],[1,1,0,0,-5]];perimeter=orthogonalPerimeter;outlineConnect=0;targetShapes=umlLifeline;portConstraint=eastwest;newEdgeStyle={&quot;curved&quot;:0,&quot;rounded&quot;:0};" vertex="1" parent="_nW9wtje4dOlIlS4VaRj-28">
          <mxGeometry x="45" y="130" width="10" height="40" as="geometry" />
        </mxCell>
        <mxCell id="_nW9wtje4dOlIlS4VaRj-57" value="" style="html=1;points=[[0,0,0,0,5],[0,1,0,0,-5],[1,0,0,0,5],[1,1,0,0,-5]];perimeter=orthogonalPerimeter;outlineConnect=0;targetShapes=umlLifeline;portConstraint=eastwest;newEdgeStyle={&quot;curved&quot;:0,&quot;rounded&quot;:0};" vertex="1" parent="_nW9wtje4dOlIlS4VaRj-28">
          <mxGeometry x="45" y="190" width="10" height="50" as="geometry" />
        </mxCell>
        <mxCell id="_nW9wtje4dOlIlS4VaRj-29" value="getAllLines()" style="html=1;verticalAlign=bottom;endArrow=block;curved=0;rounded=0;fontSize=12;startSize=8;endSize=8;" edge="1" parent="1">
          <mxGeometry width="80" relative="1" as="geometry">
            <mxPoint x="600" y="330" as="sourcePoint" />
            <mxPoint x="700" y="330" as="targetPoint" />
          </mxGeometry>
        </mxCell>
        <mxCell id="_nW9wtje4dOlIlS4VaRj-30" value="Write to Line Storage" style="html=1;verticalAlign=bottom;endArrow=block;curved=0;rounded=0;fontSize=12;startSize=8;endSize=8;" edge="1" parent="1">
          <mxGeometry width="80" relative="1" as="geometry">
            <mxPoint x="340" y="270" as="sourcePoint" />
            <mxPoint x="700" y="270" as="targetPoint" />
          </mxGeometry>
        </mxCell>
        <mxCell id="_nW9wtje4dOlIlS4VaRj-34" value="return lines" style="html=1;verticalAlign=bottom;endArrow=open;dashed=1;endSize=8;curved=0;rounded=0;fontSize=12;" edge="1" parent="1">
          <mxGeometry relative="1" as="geometry">
            <mxPoint x="700" y="360" as="sourcePoint" />
            <mxPoint x="600" y="360" as="targetPoint" />
          </mxGeometry>
        </mxCell>
        <mxCell id="_nW9wtje4dOlIlS4VaRj-37" value="Start Sorting" style="html=1;verticalAlign=bottom;endArrow=block;curved=0;rounded=0;fontSize=12;startSize=8;endSize=8;" edge="1" parent="1">
          <mxGeometry width="80" relative="1" as="geometry">
            <mxPoint x="200" y="440" as="sourcePoint" />
            <mxPoint x="440" y="440" as="targetPoint" />
          </mxGeometry>
        </mxCell>
        <mxCell id="_nW9wtje4dOlIlS4VaRj-38" value="getShiftedLines()" style="html=1;verticalAlign=bottom;endArrow=block;curved=0;rounded=0;fontSize=12;startSize=8;endSize=8;" edge="1" parent="1">
          <mxGeometry width="80" relative="1" as="geometry">
            <mxPoint x="460" y="480" as="sourcePoint" />
            <mxPoint x="580" y="480" as="targetPoint" />
          </mxGeometry>
        </mxCell>
        <mxCell id="_nW9wtje4dOlIlS4VaRj-39" value="return shifted lines" style="html=1;verticalAlign=bottom;endArrow=open;dashed=1;endSize=8;curved=0;rounded=0;fontSize=12;" edge="1" parent="1">
          <mxGeometry relative="1" as="geometry">
            <mxPoint x="580" y="520" as="sourcePoint" />
            <mxPoint x="460" y="520" as="targetPoint" />
          </mxGeometry>
        </mxCell>
        <mxCell id="_nW9wtje4dOlIlS4VaRj-40" value="sortLines()" style="html=1;align=left;spacingLeft=2;endArrow=block;rounded=0;edgeStyle=orthogonalEdgeStyle;curved=0;rounded=0;fontSize=12;startSize=8;endSize=8;" edge="1" parent="1">
          <mxGeometry relative="1" as="geometry">
            <mxPoint x="460" y="550" as="sourcePoint" />
            <Array as="points">
              <mxPoint x="490" y="580" />
            </Array>
            <mxPoint x="465" y="580.0000000000002" as="targetPoint" />
          </mxGeometry>
        </mxCell>
        <mxCell id="_nW9wtje4dOlIlS4VaRj-41" value=":OutputGUIPanel" style="shape=umlLifeline;perimeter=lifelinePerimeter;whiteSpace=wrap;html=1;container=1;dropTarget=0;collapsible=0;recursiveResize=0;outlineConnect=0;portConstraint=eastwest;newEdgeStyle={&quot;curved&quot;:0,&quot;rounded&quot;:0};" vertex="1" parent="1">
          <mxGeometry x="790" y="130" width="100" height="640" as="geometry" />
        </mxCell>
        <mxCell id="_nW9wtje4dOlIlS4VaRj-64" value="" style="html=1;points=[[0,0,0,0,5],[0,1,0,0,-5],[1,0,0,0,5],[1,1,0,0,-5]];perimeter=orthogonalPerimeter;outlineConnect=0;targetShapes=umlLifeline;portConstraint=eastwest;newEdgeStyle={&quot;curved&quot;:0,&quot;rounded&quot;:0};" vertex="1" parent="_nW9wtje4dOlIlS4VaRj-41">
          <mxGeometry x="45" y="560" width="10" height="60" as="geometry" />
        </mxCell>
        <mxCell id="_nW9wtje4dOlIlS4VaRj-42" value="getSortedLines()" style="html=1;verticalAlign=bottom;endArrow=block;curved=0;rounded=0;fontSize=12;startSize=8;endSize=8;" edge="1" parent="1">
          <mxGeometry width="80" relative="1" as="geometry">
            <mxPoint x="200" y="610" as="sourcePoint" />
            <mxPoint x="440" y="610" as="targetPoint" />
          </mxGeometry>
        </mxCell>
        <mxCell id="_nW9wtje4dOlIlS4VaRj-43" value="return shifted lines" style="html=1;verticalAlign=bottom;endArrow=open;dashed=1;endSize=8;curved=0;rounded=0;fontSize=12;" edge="1" parent="1">
          <mxGeometry relative="1" as="geometry">
            <mxPoint x="440" y="650" as="sourcePoint" />
            <mxPoint x="200" y="650" as="targetPoint" />
          </mxGeometry>
        </mxCell>
        <mxCell id="_nW9wtje4dOlIlS4VaRj-44" value="displayAllLines()" style="html=1;verticalAlign=bottom;endArrow=block;curved=0;rounded=0;fontSize=12;startSize=8;endSize=8;" edge="1" parent="1">
          <mxGeometry width="80" relative="1" as="geometry">
            <mxPoint x="200" y="700" as="sourcePoint" />
            <mxPoint x="830" y="700" as="targetPoint" />
          </mxGeometry>
        </mxCell>
        <mxCell id="_nW9wtje4dOlIlS4VaRj-45" value="display lines to user" style="html=1;verticalAlign=bottom;endArrow=open;dashed=1;endSize=8;curved=0;rounded=0;fontSize=12;" edge="1" parent="1">
          <mxGeometry relative="1" as="geometry">
            <mxPoint x="830" y="740" as="sourcePoint" />
            <mxPoint x="90" y="740" as="targetPoint" />
          </mxGeometry>
        </mxCell>
        <mxCell id="_nW9wtje4dOlIlS4VaRj-65" value="User" style="text;align=center;fontStyle=1;verticalAlign=middle;spacingLeft=3;spacingRight=3;strokeColor=none;rotatable=0;points=[[0,0.5],[1,0.5]];portConstraint=eastwest;html=1;" vertex="1" parent="1">
          <mxGeometry x="40" y="170" width="80" height="26" as="geometry" />
        </mxCell>
      </root>
    </mxGraphModel>
  </diagram>
</mxfile>
